<?xml version="1.0" encoding="utf-8"?>
<!-- Generator: Adobe Illustrator 21.1.0, SVG Export Plug-In . SVG Version: 6.00 Build 0)  -->
<svg version="1.1" id="Layer_1" xmlns="http://www.w3.org/2000/svg" xmlns:xlink="http://www.w3.org/1999/xlink" x="0px" y="0px"
	 viewBox="0 0 359.9 482.5" style="enable-background:new 0 0 359.9 482.5;" xml:space="preserve">
<style type="text/css">
	.st0{fill:#FFFFFF;}
	.st1{fill:#5E9C9C;}
</style>
<title>service-icon</title>
<path class="st0" d="M162.7,164.5v-51c-2.9,1.2-8.3-3-16.1-12.8c-1.6-4.3-5.3-7.4-9.7-8.4c-10.6,0.3-20.9,3.8-29.5,10
	c-10.5,3.2-21.6,4.4-32.6,3.3H0c-0.4,1,1.8,4.8,6.7,11.3c4.9,6.5,14.8,9.6,29.8,9.3c-0.7,0.6,0,3,2,7.3s9.6,6.7,22.7,7.3
	c-0.4,1.3,2.1,4.9,7.6,10.6c5.6,5.7,16.8,5.6,33.6-0.2c-1,1.3,2,5,9,11S135.6,169.1,162.7,164.5"/>
<path class="st0" d="M285.1,105.8c-11,1-22-0.1-32.6-3.3c-8.6-6.2-18.9-9.7-29.5-10c-4.4,1-8,4.1-9.6,8.3
	c-7.9,9.7-13.3,14-16.3,12.8v51c27.2,4.7,44.3,4,51.3-2c7-6.1,10-9.8,9-11.1c16.8,5.8,28.1,5.8,33.6,0.2c5.6-5.7,8.1-9.2,7.6-10.6
	c13.2-0.6,20.8-3,22.8-7.3c1.9-4.3,2.5-6.7,1.8-7.3c15,0.2,25-2.9,29.8-9.3c4.9-6.4,7.1-10.1,6.7-11.3L285.1,105.8"/>
<path class="st0" d="M189.5,335.4c0.1-4.8,0.1-9.6,0.1-14.6l-8.8-4c-1.7,0.6-3.4,1.1-5,1.5l-2,0.6h-0.3c-0.5,0.2-1.1,0.5-1.8,0.8
	l-1.5,0.6c0,5.1,0.1,10.1,0.2,15.1c1.9,1,4.2,2.1,6.7,3.2c1,0.4,2,0.8,2.9,1.2c1-0.4,2-0.8,2.9-1.2
	C185.4,337.5,187.6,336.4,189.5,335.4"/>
<path class="st0" d="M180.1,443.5l-2.1,1.2c-2,1-4.1,2-6.1,3c0,2.1,0,4.1,0.1,5.9c0.2,3.3,0.5,6.4,0.8,9.1c0.5,4.3,1.2,8.6,2.3,12.8
	c0.9,3,1.4,4.4,1.4,4.4c0.4,1,1.2,1.9,2.3,2.3c1.9,0.7,4.1-0.3,4.8-2.2c0,0,0-0.1,0-0.1c0.6-1.4,1-2.9,1.4-4.4
	c1.1-4.2,1.9-8.5,2.4-12.8c0.3-2.7,0.6-5.8,0.8-9.1c0-1.8,0.1-3.8,0.2-5.9c-2.1-1-4.2-2-6.1-3L180.1,443.5"/>
<path class="st1" d="M180.1,410c-1.3,0.5-2.5,1-3.5,1.5c1.1,1,2.3,1.9,3.5,2.8c1.2-0.9,2.3-1.8,3.4-2.8
	C182.4,411,181.3,410.5,180.1,410"/>
<path class="st0" d="M169.9,96.8c-0.1,11.2-0.2,26.1-0.3,44.9v80.7l2.9,0.6c2.4,0.5,4.9,1.1,7.4,1.7c2.7-0.6,5.2-1.2,7.6-1.7
	l2.9-0.6v-50.2c0-10.9,0-21-0.1-30.4c0-18.8-0.1-33.7-0.1-44.9c6.5-3.9,9.9-9.8,10.3-17.8c-1.2-12.4-8.1-19.2-20.6-20.4
	c-12.4,1.2-19.2,8-20.4,20.4C159.9,87,163.4,92.9,169.9,96.8"/>
<path class="st0" d="M190.1,279.6v-22.1c-1.3-0.4-2.6-0.8-3.8-1.1c-2.1-0.6-4.3-1.2-6.4-1.7c-2,0.5-4.1,1.1-6.2,1.7
	c-1.2,0.3-2.5,0.7-3.9,1.1c0,7.3,0,14.7,0.1,22.1v3.2l9,4.7c1.3-0.5,2.6-1,3.9-1.5c2.5-1.2,4.9-2.4,7.2-3.5
	C190.1,281.5,190.2,280.6,190.1,279.6"/>
<path class="st0" d="M179.9,382.2l0.6-0.3c0.4-0.2,0.9-0.4,1.4-0.6l1.2-0.6c0.6-0.3,1.1-0.7,1.7-1.1c0.1,0,0.2-0.1,0.3-0.1
	c1.5-0.9,2.8-1.9,4-3.2v-0.6c-4.3-5.1-7.3-7.4-9.1-6.9c-1.9,0.5-3.7,1.4-5.3,2.4l-0.3,0.2l-0.1,0.2c-2.4,2.3-3.6,3.7-3.4,4.1v0.6
	c1.2,1.3,2.5,2.3,4,3.2c0.1,0.1,0.2,0.1,0.3,0.1c0.5,0.3,1.1,0.7,1.7,1.1c0.4,0.2,0.8,0.4,1.2,0.6c0.5,0.2,1,0.4,1.4,0.6l0.6,0.3"/>
<path class="st0" d="M156.3,329.1v0.2l0,0V329.1 M230.2,256.8c-0.6-1.4-1.3-2.8-2.1-4.1c-1.5-2.5-3.3-4.7-5.5-6.7
	c-2.7,0.7-5.7,1.4-8.8,2c-4.4,0.9-8.7,1.8-12.9,2.6c-2.4,0.4-4.9,0.9-7.3,1.4c-1.8,0.4-3.7,0.8-5.8,1.2c3.1,0.8,6.1,1.7,9,2.9
	c2.8,1.1,5.5,2.4,8.1,4c1.9,1.1,3.6,2.5,4.9,4.3c0.1,0.3,0.3,0.6,0.5,0.9c0.1,0.3,0.2,0.5,0.3,0.8c0,0.4,0,0.7,0.2,1.1v1.1l-0.2,0.9
	l-0.2,0.6v0.2c-0.1,0-0.1,0-0.1,0.2l-0.1,0.6c-0.2,0.4-0.5,0.9-0.8,1.4c-0.3,0.4-0.6,0.9-0.9,1.4c-1.7,2.3-3.8,4.3-6.1,5.9
	c-5.5,4-11.5,7.4-17.8,10c-3.3,1.4-6.7,2.7-10.2,3.8c-1.6,0.6-3.3,1.2-5,1.7l-1.2,0.5l-1.1,0.3l-0.9,0.3c-1.2,0.4-2.3,0.8-3.4,1.2
	c-4.3,1.8-8.4,4-12.2,6.6c-4.4,3-8,6.8-10.8,11.3c-0.7,1.3-1.4,2.7-2,4c-0.5,1.5-1,3-1.4,4.6c-0.1,0.7-0.2,1.5-0.3,2.3v1.2l-0.2,0.6
	v1.2l0.2,1.5c0,0.5,0.1,0.9,0.2,1.4c0,0.6,0.1,1.1,0.3,1.7c0.2,0.9,0.4,1.8,0.8,2.6c0.3,0.8,0.6,1.6,0.9,2.3c0.7,1.4,1.6,2.8,2.6,4
	c1.6,2.2,3.4,4.1,5.5,5.8c2.6,2.2,5.5,4.1,8.5,5.8l0.3-0.3c0.1-0.1,0.2-0.2,0.2-0.3h0.1l0.8-0.8v-0.1c0.2-0.2,0.5-0.4,0.8-0.6
	l0.6-0.6l1.2-0.9l0.3-0.1c0.5-0.5,1.1-0.9,1.7-1.2l0.3-0.2c0.5-0.3,1-0.6,1.4-0.8c3.5-1.8,6.6-3.3,9.4-4.6l1.5-0.6l2.1-0.9h0.2
	c-3-1.3-6-2.7-8.8-4.3c-2.6-1.4-5.1-3.1-7.5-5c-0.9-0.7-1.6-1.4-2.3-2.3c-0.2-0.3-0.3-0.6-0.4-0.9l-0.2-0.2V329l-0.2-0.5h0.2v-0.9
	c0.2-0.3,0.3-0.6,0.3-0.9c0.3-0.3,0.5-0.7,0.6-1.1c1.4-2,3.1-3.7,5.2-5c2.5-1.7,5.2-3.1,8.1-4.3c0.7-0.2,1.4-0.4,2.1-0.8l0.3-0.2
	h0.5l1.5-0.5c2-0.6,4-1.2,5.9-1.8c4-1.3,7.9-2.8,11.7-4.4c8-3.1,15.6-7.3,22.5-12.3c3.9-2.9,7.5-6.3,10.5-10.2
	c0.7-1,1.4-2.1,2.1-3.3c0.8-1.1,1.5-2.4,2-3.7l0.9-2.1c0.2-0.8,0.5-1.7,0.8-2.6l0.3-1.2l0.2-0.8l0.2-1.4c0.1-0.5,0.1-0.8,0.1-0.9v-2
	l0.1-2.3l-0.6-4.6C231.3,259.8,230.8,258.3,230.2,256.8"/>
<path class="st0" d="M129.4,239.9c0.8,0.3,1.7,0.6,2.6,0.9c1.5,0.4,3.1,0.8,4.7,1.2c1.5-1.3,3.1-2.4,4.7-3.5
	c3.9-2.5,8.1-4.6,12.4-6.3c4.4-1.7,8.3-3.1,11.7-4.1c2.2-0.6,4.4-1.2,6.4-1.7l-0.1-0.2c-6.9-1.3-13.6-2.7-20.1-4
	c-3.1-0.7-6.1-1.4-9-2.1c-1.5-0.4-2.9-0.8-4.1-1.2c-0.7-0.2-1.4-0.4-2-0.6l-0.9-0.3c-0.3-0.1-0.5-0.2-0.8-0.3
	c-2.2-0.8-4.3-1.9-6.2-3.4c-1.1-0.6-2.1-1.3-3-2l-1.4-1.1l-1.2-1.1c-3.2-3.2-4.8-5.6-5-7.5c-0.1-0.5-0.1-1,0.2-1.5
	c0-0.2,0.1-0.3,0.2-0.5c0.1-0.1,0.2-0.3,0.3-0.5c0.2-0.3,0.4-0.5,0.6-0.8c0-0.1,0.3-0.4,0.9-0.9c0.4-0.3,0.8-0.7,1.2-1.1l0.4-0.3
	c0.3-0.2,0.6-0.4,0.8-0.5c0.9-0.6,1.9-1,2.9-1.2c1.5-0.4,3.1-0.4,4.6,0.2c1.7,0.6,3.4,1.5,4.9,2.6c1.4,1.1,2.6,2.1,3.6,3
	c1.8,2,2.6,3,2.4,2.9c4.7,5.3,10,6.1,16.1,2.4c5.3-4.7,6.1-10,2.6-16.1c-1.5-1.9-3.1-3.8-4.9-5.5c-2-2-4.2-3.8-6.5-5.5
	c-3.4-2.5-7.2-4.4-11.3-5.8c-5-1.8-10.8-2-17.4-0.5c-3.2,0.8-6.2,2-9,3.6c-0.6,0.5-1.3,1-2,1.4l-0.9,0.6l-0.3,0.3
	c-0.2,0.2-0.5,0.4-0.8,0.6l-0.3,0.3c-0.4,0.3-0.9,0.7-1.4,1.1c-0.6,0.5-1.1,1-1.5,1.5c-1.5,1.4-2.8,3-3.9,4.7
	c-0.6,0.9-1.2,1.8-1.7,2.7c-0.4,0.9-0.8,1.9-1.2,2.9c-1.6,4.4-2,9.1-1.2,13.7c0.8,4.2,2.5,8.2,4.9,11.7c0.5,0.8,1.1,1.6,1.7,2.3
	c0.6,0.8,1.2,1.6,1.8,2.3c1.2,1.4,2.6,2.8,4,4c0.6,0.6,1.3,1.2,2,1.8s1.4,1.1,2.1,1.7l4.6,3c3.1,2,6.4,3.6,9.9,5
	c0.5,0.3,1,0.5,1.5,0.6l1.4,0.5"/>
<path class="st0" d="M209.9,437.1c0-0.2-1.5-1.4-4.4-3.5c-1.7-1.3-3.5-2.4-5.3-3.3c-3.7,3.1-7.7,6-11.9,8.5l-4.6,2.7h0.2
	c3,1.6,5.8,3,8.2,4.3c2.5,1,4.7,1.8,6.6,2.4c3.7,0.9,5.5,1.3,5.6,1.1c2,0.2,3.9-0.5,5.3-1.8c3-3.3,3.1-6.7,0.5-10.2L209.9,437.1"/>
<path class="st0" d="M170.5,410L170.5,410 M212.1,373.2c-0.1-0.7-0.3-1.4-0.5-2.1c-0.1-0.7-0.3-1.4-0.5-2.1l-0.8-1.8l-0.8-1.8
	l-0.9-1.5c-0.6-1-1.3-2-2-3c-0.7-0.8-1.4-1.6-2-2.4c-0.1,0-0.2,0.1-0.3,0.1c-3.2,1.6-6.8,3.3-11,5c-2.7,1.1-5.4,2.2-8.1,3.2
	l-0.8,0.3l2.1,1.1l0.6,0.5l0.5,0.2l0.8,0.8c0.6,0.6,1.2,1.2,1.7,1.8c0.3,0.4,0.6,0.7,0.9,1.1c0.3,0.4,0.5,0.8,0.8,1.2
	c0.2,0.2,0.3,0.4,0.5,0.6c0.1,0.2,0.1,0.4,0.1,0.6c0.1,0.1,0.2,0.3,0.3,0.5c0,0.1,0.1,0.2,0.2,0.3v0.6c0,0.1,0.1,0.2,0.2,0.3
	c-0.1,0-0.2,0-0.2,0.1s0.1,0.1,0,0.2c0,0.1-0.1,0.2-0.2,0.3c0,0.2-0.1,0.5-0.3,0.6c-0.1,0.4-0.3,0.7-0.6,0.9c-1.4,1.7-3.1,3.1-5,4.1
	c-0.8,0.5-1.7,1-2.6,1.5c-0.3,0.1-0.5,0.3-0.8,0.5c-1.2,0.5-2.4,1.1-3.6,1.7c-2.4,0.9-5.2,2-8.2,3.3c-3,1.3-6,2.9-8.8,4.6
	c-1.7,1-3.3,2.3-4.7,3.7l-1.2,1.2c-0.3,0.4-0.6,0.9-1.1,1.4c-0.8,1.1-1.6,2.3-2.1,3.5c-1.2,2.8-1.6,5.8-1.2,8.8
	c0.1,0.7,0.2,1.3,0.5,2c0.2,0.6,0.4,1.2,0.6,1.8c0.5,1.1,1,2.1,1.5,3c1.5,2.4,3.3,4.6,5.3,6.5c0.2-0.2,0.5-0.4,0.8-0.5l4.9-2.6
	c3.2-1.7,6.2-3.5,9-5.3c0.7-0.4,1.4-0.8,2-1.2l0,0c-1.2-0.9-2.3-1.8-3.4-2.8c-1-0.8-1.9-1.8-2.6-2.9c0.5-0.5,1-0.9,1.5-1.2
	c0.9-0.5,1.8-1,2.7-1.4c1.2-0.6,2.4-1.2,3.6-1.7c2.8-1,5.5-2.1,8.2-3.2c1.6-0.7,3.2-1.4,4.7-2.1s3.3-1.7,4.9-2.6
	c0.7-0.5,1.5-1,2.3-1.5s1.8-1.2,2.6-1.8c0.5-0.5,1-0.9,1.5-1.2c0.3-0.3,0.6-0.7,0.9-0.9l1.2-1.1c0.3-0.5,0.6-1,1.1-1.4
	c0.8-0.9,1.6-1.9,2.3-3c0.7-1.2,1.4-2.4,2-3.7c0.2-0.7,0.4-1.4,0.8-2c0.2-0.7,0.4-1.5,0.5-2.3c0.1-0.7,0.2-1.5,0.3-2.3v-2.3
	C212.2,374.6,212.1,373.9,212.1,373.2"/>
<path class="st0" d="M262,190.4c-0.5-0.9-1-1.8-1.5-2.7c-1.2-1.7-2.5-3.3-4-4.7c-0.5-0.5-1.1-1.1-1.7-1.5c-0.4-0.4-0.9-0.8-1.4-1.1
	l-0.3-0.3l-0.6-0.6h-0.2l-0.2-0.3l-1.1-0.6c-0.6-0.5-1.3-1-2-1.4c-2.8-1.6-5.7-2.9-8.8-3.6c-6.6-1.5-12.4-1.4-17.5,0.5
	c-4,1.4-7.7,3.3-11.1,5.8c-2.3,1.6-4.5,3.4-6.5,5.5c-1.7,1.7-3.4,3.5-4.9,5.5c-3.6,6.1-2.8,11.5,2.4,16.1c6.2,3.7,11.6,2.9,16.3-2.4
	c-0.2,0.1,0.6-0.9,2.4-2.9c1.1-1.1,2.4-2.1,3.6-3c1.4-1.1,3-1.9,4.7-2.6c1.5-0.5,3.2-0.6,4.7-0.2c1,0.2,1.9,0.6,2.8,1.2
	c0.3,0.1,0.6,0.3,0.9,0.5l0.3,0.3h0.2c0.4,0.4,0.8,0.7,1.2,1.1c0.5,0.5,0.8,0.8,0.9,0.9s0.3,0.5,0.5,0.8s0.4,0.4,0.5,0.5
	c0,0.2,0,0.3,0.2,0.5c0.2,0.5,0.3,1,0.1,1.5c-0.2,1.8-1.9,4.3-5.2,7.5l-1.2,1.1l-1.4,1.1c-0.9,0.7-1.9,1.4-2.9,2
	c-2,1.4-4.1,2.5-6.4,3.4l-0.6,0.3l-0.9,0.3c-0.7,0.2-1.4,0.4-2,0.6c-1.3,0.4-2.7,0.8-4.1,1.2c-2.9,0.7-6,1.4-9.1,2.1
	c-6.5,1.3-13.1,2.7-19.9,4c-7,1.4-14.2,3.2-21.6,5.3c-3.9,1.1-7.7,2.3-11.4,3.8c-4.1,1.6-8,3.6-11.8,5.8c-4.5,2.9-8.4,6.8-11.4,11.3
	c-0.7,1.2-1.4,2.6-2.1,4.1c-0.5,1.5-1,3-1.4,4.6c-0.3,1.5-0.5,3-0.6,4.6v2.3l0.1,1.2v0.8c0,0.1,0.1,0.4,0.2,0.9l0.2,1.4l0.2,0.8
	l0.3,1.2c0.2,0.9,0.5,1.7,0.8,2.6l0.9,2.1c0.5,1.3,1.1,2.5,1.8,3.7c0.7,1.2,1.4,2.3,2.3,3.3c1,1.3,2,2.5,3,3.7
	c2.3,2.4,4.7,4.6,7.3,6.5c1.6,1.2,3.2,2.3,4.9,3.3h0.1c0.8-0.6,1.6-1.2,2.4-1.7c0.1,0,0.2-0.1,0.3-0.2c0.8-0.4,1.6-0.9,2.4-1.4
	c0.3-0.1,0.6-0.3,0.9-0.5c0.6-0.3,1.3-0.6,2-0.9c1-0.5,2.1-1,3.2-1.5c1.1-0.5,2.3-0.8,3.5-1.2l0.9-0.5l2.4-0.6
	c1.6-0.5,3.3-1.1,5-1.7c0.7-0.2,1.4-0.5,2.1-0.8c-1.7-0.7-3.4-1.5-5.2-2.4c-4.2-2-8.3-4.5-12-7.3c-1.6-1.1-3.1-2.4-4.4-3.8
	c-0.6-0.7-1.2-1.4-1.7-2.1c-0.4-0.4-0.7-0.9-0.9-1.4c-0.3-0.5-0.6-1-0.8-1.4l-0.3-0.6c0.1-0.1,0.1-0.2,0-0.2v-0.2l-0.1-0.6l-0.2-0.9
	v-1.1c0.1-0.3,0.2-0.7,0.2-1.1c0.1-0.2,0.2-0.5,0.3-0.8c0.1-0.3,0.3-0.6,0.5-0.9c1.3-1.7,2.9-3.2,4.7-4.3c2.5-1.6,5.2-3,8.1-4
	c3-1.1,6.2-2.1,9.4-3c6.5-1.7,13.1-3.2,19.9-4.6c6.8-1.3,13.5-2.7,20.3-4c3.3-0.6,6.7-1.4,10-2.3c1.7-0.4,3.5-0.9,5.2-1.4
	c0.8-0.3,1.7-0.6,2.6-0.9l1.4-0.5c0.5-0.1,0.9-0.4,1.4-0.6c3.5-1.3,6.8-3,10-5c1.5-1,3-2,4.4-3c0.7-0.6,1.4-1.2,2.1-1.7l2.1-1.8
	c1.3-1.2,2.7-2.6,4-4c0.6-0.7,1.2-1.5,1.8-2.3c0.6-0.7,1.2-1.5,1.7-2.3c2.4-3.5,4.1-7.5,4.9-11.7c0.8-4.6,0.4-9.3-1.2-13.7
	C262.9,192.3,262.5,191.3,262,190.4"/>
<path class="st0" d="M203.8,329.3L203.8,329.3c-0.1,0-0.1-0.1,0-0.2V329.3 M224.4,327.9l-0.2-0.3V327l-0.2-1.2
	c-0.1-0.7-0.2-1.5-0.3-2.3c0-0.2,0-0.3-0.1-0.5c-0.3-1.3-0.7-2.7-1.1-4c-0.7-1.4-1.4-2.8-2-4.1c-2.8-4.3-6.3-8-10.5-11
	c-4.4,2.5-8.4,4.7-12.2,6.4c-0.2,0.1-0.4,0.2-0.6,0.3c-1.2,0.5-2.3,1-3.3,1.4l-3.6,1.5c-0.2,0-0.3,0-0.5,0.2h-0.2
	c-1.2,0.5-2.5,1-3.8,1.5l0.8,0.2l0.5,0.2l0.4,0.1c0.6,0.2,1.3,0.5,2,0.8h0.3c2.8,1.1,5.4,2.6,7.9,4.3c1,0.7,2,1.5,2.9,2.3
	c0.8,0.8,1.5,1.6,2.1,2.6c0.2,0.4,0.4,0.7,0.6,1.1l0.3,0.9c0,0.2,0.1,0.4,0.2,0.6v0.9c0,0.1-0.1,0.2-0.2,0.3
	c-0.1,0.3-0.3,0.5-0.4,0.8c-0.7,0.9-1.4,1.7-2.3,2.4c-2.3,1.9-4.8,3.5-7.5,4.9c-2.9,1.5-6,3-9.1,4.4s-6.4,2.8-9.7,4.1
	c-3.3,1.3-6.9,3-10.6,4.9c-0.5,0.3-1.1,0.6-1.7,0.9c-0.6,0.3-1.1,0.8-1.7,1.2c-0.3,0.3-0.7,0.6-1.1,0.9l-0.4,0.5
	c0-0.1-0.2,0-0.6,0.5v0.2l-0.9,0.9c-0.6,0.6-1.2,1.3-1.8,2c-0.8,0.9-1.6,1.9-2.3,2.9c-0.8,0.9-1.5,1.9-2,3c-0.4,0.4-0.7,0.9-0.9,1.5
	l-0.9,1.8l-0.6,1.8c-0.2,0.6-0.4,1.3-0.6,2c-0.2,0.7-0.4,1.4-0.5,2.1c-0.1,0.8-0.2,1.5-0.2,2.3v2.3c0.1,0.7,0.2,1.5,0.3,2.3l0.6,2.1
	c0.2,0.7,0.5,1.4,0.8,2.1c0.5,1.3,1.1,2.5,1.8,3.7c0.7,1,1.4,2,2.3,2.9c0.4,0.5,0.8,0.9,1.2,1.4l1.2,1.2c0.3,0.2,0.6,0.5,0.9,0.8
	c1.3-1.1,2.6-2,4-2.9c3-1.9,6.2-3.5,9.4-4.9c1.6-0.7,3.1-1.4,4.6-2c0.3,0,0.6-0.1,0.8-0.3c-0.9-0.4-1.8-0.9-2.6-1.4
	c-1.9-1.1-3.5-2.5-5-4.1c-0.2-0.3-0.4-0.6-0.6-0.9c-0.2-0.2-0.3-0.5-0.3-0.8l-0.2-0.2v-0.9c0-0.1,0.1-0.2,0.2-0.3V375
	c0.1-0.1,0.2-0.3,0.3-0.5c0.1-0.1,0.2-0.3,0.1-0.5c0.1-0.2,0.3-0.4,0.5-0.6c0.2-0.4,0.5-0.8,0.8-1.2c0.3-0.4,0.6-0.8,0.9-1.2
	c0.5-0.5,1.1-1.1,1.8-1.7l0.6-0.8l0,0l0.5-0.3l0.8-0.3c2.8-1.4,5.6-2.7,8.5-3.8c3.3-1.3,6.7-2.7,10.2-4.1c3.7-1.5,7.3-3.1,10.8-5
	c3.9-2,7.7-4.4,11.1-7.2c2-1.7,3.8-3.6,5.5-5.6c0.9-1.2,1.7-2.6,2.4-4c0.4-0.7,0.8-1.5,1.1-2.3c0.2-0.8,0.5-1.7,0.8-2.8
	c0.1-0.6,0.2-1.2,0.3-1.7c0.1-0.5,0.1-0.9,0.2-1.4l0.2-1.4L224.4,327.9"/>
<path class="st0" d="M189.5,409.9L189.5,409.9 M198.5,427.1c2.5-2.2,4.7-4.7,6.4-7.6c0.6-0.9,1.1-1.9,1.5-2.9
	c0.2-0.6,0.4-1.2,0.6-1.8c0.2-0.7,0.4-1.3,0.5-2c0.7-4.4-0.6-9-3.4-12.5c-0.3-0.5-0.7-1-1.1-1.4l-0.2-0.2l-1.7,1.2l-0.2,0.1
	l-2.4,1.5c-1.2,0.7-2.4,1.4-3.7,2c-0.4,0.2-0.9,0.5-1.4,0.8c-0.1,0-0.1,0-0.2,0.1c0,0,0,0,0,0l-1.5,0.6l-3.3,1.5l-4,1.5
	c0.9,0.5,1.8,1,2.7,1.5c0.6,0.3,1.2,0.6,1.7,1.1c-0.8,1.1-1.7,2.1-2.7,2.9c-2.9,2.6-6,5-9.3,7c-3.2,2-6.3,3.8-9.1,5.3
	c-2.9,1.6-5.5,3-7.8,4.1c-2,1-3.8,2.2-5.6,3.5c-2.9,2.1-4.4,3.3-4.4,3.5v0.1c-1.4,1.4-2.2,3.3-2,5.3c0.7,4.4,3.3,6.6,7.6,6.8
	c0.2,0.1,2.1-0.3,5.8-1.2c2.2-0.6,4.3-1.5,6.4-2.4c2.4-1.2,5.2-2.6,8.4-4.3s6.4-3.6,10.2-5.8c4.3-2.5,8.3-5.4,12-8.7"/>
<path class="st0" d="M89.4,38.2c-0.1,0.9,5.2,5.5,16,13.9s27.2,15.2,49.3,20.6c1.7-1.7,2.1-9.1,1.1-22.2s-13.7-22.1-38-27.1
	c-22.9-3.6-37.8-8.2-44.8-13.9c-6.9-5.7-10-8.8-9.4-9.4c-2.2,3.6,0.2,17.3,7.2,41.3c7.1,24,32.2,37.3,75.3,39.7
	c-1.3-0.1-8.8-3.8-22.4-11.1C110,62.6,98.6,52,89.4,38.2"/>
<path class="st0" d="M296.4,0c0.7,0.6-2.4,3.8-9.3,9.4c-6.9,5.7-21.8,10.3-44.7,13.8c-24.4,4.9-37.2,13.9-38.2,27.1
	c-0.9,13.1-0.5,20.5,1.2,22.2c22.2-5.4,38.7-12.2,49.3-20.6s15.9-12.9,15.8-13.9C261.4,52,250,62.6,236.4,69.9
	c-13.6,7.3-21.1,11-22.5,11.1c43.2-2.4,68.3-15.7,75.3-39.7C296.3,17.2,298.6,3.5,296.4,0"/>
</svg>
