<?xml version="1.0" encoding="utf-8"?>
<!-- Generator: Adobe Illustrator 18.1.1, SVG Export Plug-In . SVG Version: 6.00 Build 0)  -->
<!DOCTYPE svg PUBLIC "-//W3C//DTD SVG 1.1//EN" "http://www.w3.org/Graphics/SVG/1.1/DTD/svg11.dtd">
<svg version="1.1" id="Layer_1" xmlns="http://www.w3.org/2000/svg" xmlns:xlink="http://www.w3.org/1999/xlink" x="0px" y="0px"
	 viewBox="0 0 304.1 48.8" style="enable-background:new 0 0 304.1 48.8;" xml:space="preserve">
<g>
	<path style="fill:#594636;" d="M45.4,6.1l1.5-5.3h18.6l1.5,5.3h-0.7c-1.2-1.5-3.9-4.2-6-4.2c-1.2,0-1.6,0.8-1.6,1.9v10.4
		c0,2.7,0.1,5,2.4,5.2v0.6c-1.8,0-3.5-0.1-5-0.1c-1.6,0-3.3,0.1-5.3,0.1v-0.6c2.6-0.1,2.7-2.5,2.7-5.2V3.8c0-1.1-0.4-1.9-1.6-1.9
		c-2.1,0-4.8,2.7-6,4.2H45.4z"/>
	<path style="fill:#594636;" d="M72.8,4.5c0-2-0.4-3-1.8-3.3V0.7c1.6,0,3,0.1,4.4,0.1c6.9,0,10-0.1,12.8-0.1l1.4,5.2H89
		c-2.2-2.6-5.2-4.2-8.2-4.2H78v7.5h1.8c2.5,0,5.2-0.5,6.1-3.2h0.6v7.4H86c-0.6-2.2-3.1-3.1-6.2-3.1H78v4.3c0,3,0.7,4.1,3.6,4.1
		c3.8,0,7.3-3,9.4-5.7l0.5,0.2l-2.2,6.7c-4.1,0-8.2-0.1-13.9-0.1c-1.6,0-3.3,0.1-5,0.1v-0.6c2.3-0.1,2.4-2.5,2.4-5.2V4.5z"/>
	<path style="fill:#594636;" d="M96,13.5l0.5,0.2c0.1,1.9,0.7,5.6,2.6,5.6c0.8,0,2.1-0.7,2.1-6.9v-8c0-2-0.4-3-1.9-3.3V0.7
		c1.8,0,3.2,0.1,4.5,0.1c1.3,0,2.8-0.1,4.5-0.1v0.5c-1.5,0.3-1.8,1.4-1.8,3.3v7.6c0,5.3-2.4,8.3-7.4,8.3c-1.8,0-3.3-0.3-4.7-0.7
		L96,13.5z"/>
	<path style="fill:#594636;" d="M123.5,0.2c5.7,0,11.2,3.5,11.2,10.1s-5.5,10.1-11.2,10.1c-5.7,0-11.2-3.5-11.2-10.1
		S117.8,0.2,123.5,0.2 M123.5,19.4c3.3,0,5.4-2.8,5.4-9.1c0-6.3-2.1-9.1-5.4-9.1c-3.3,0-5.4,2.8-5.4,9.1
		C118.1,16.6,120.3,19.4,123.5,19.4"/>
	<path style="fill:#594636;" d="M138.8,0.7c1.2,0,2.4,0.1,3.4,0.1c1.1,0,2.4-0.1,3.6-0.1l11.7,11.4v-5c0-2.1-0.4-5.3-2.9-6V0.7
		c1.2,0,2.6,0.1,3.7,0.1c1.1,0,2.3-0.1,3.6-0.1v0.5c-2.4,0.7-3.2,3.9-3.2,6v12.3c0,0.7-0.4,0.9-0.6,0.9H158c-0.3,0-0.7-0.5-1-0.8
		L142.4,4.3v9.2c0,2.1,0.4,5.3,2.9,6v0.5c-1.2,0-2.6-0.1-3.7-0.1c-1.1,0-2.3,0.1-3.6,0.1v-0.5c2.4-0.7,3.2-3.9,3.2-6V5.9
		c0-2.3-0.1-4.2-2.5-4.7V0.7z"/>
	<path style="fill:#594636;" d="M179.1,4.5c0-2-0.4-3-1.8-3.3V0.7c2.3,0,4.8,0.1,6.9,0.1h5.4c4.8,0,7.2,1.8,7.2,4.5
		c0,3.7-4.4,4.5-7.3,4.5v0.1c3.5,0.5,4.9,1.3,6.2,4.6c1.6,3.9,2.2,4.5,3.8,5v0.5c-1.2,0-2.6-0.1-3.7-0.1c-1.1,0-2.4,0.1-3.6,0.1
		l-1.6-4.7c-0.8-2.1-2-5-4.8-5h-1.6v4c0,2.7,0.1,5,2.3,5.2v0.6c-1.6,0-3.3-0.1-4.9-0.1c-1.6,0-3.3,0.1-4.9,0.1v-0.6
		c2.2-0.1,2.3-2.5,2.3-5.2V4.5z M184.3,9.2h1.6c2.5,0,5.3-0.8,5.3-3.7c0-3.1-2.8-3.7-5.3-3.7h-1.6V9.2z"/>
	<path style="fill:#594636;" d="M208.3,12.2l-1.1,2.3c-0.4,0.9-0.7,1.8-0.7,2.4c0,1.5,0.9,2.1,2.3,2.4v0.6c-1.2,0-2.6-0.1-3.7-0.1
		c-1.1,0-2.3,0.1-3.6,0.1v-0.5c0.9-0.2,2.7-1.8,4.3-4.7l7.1-13.4c0.2-0.4,0.5-1,0.7-1h0.1c0.2,0,0.7,0.8,0.9,1.1l7.7,14.5
		c1.4,2.6,2.2,3.2,3.1,3.4v0.7c-1.6,0-3.5-0.1-5-0.1c-1.5,0-3.2,0.1-4.8,0.1v-0.6c1-0.2,1.6-0.3,1.6-1.5c0-0.7-0.4-1.8-1-2.9
		l-1.5-2.8H208.3z M208.8,11.2h5.3l-2.7-5.4L208.8,11.2z"/>
	<path style="fill:#594636;" d="M228.4,0.7c1.2,0,2.4,0.1,3.4,0.1c1.1,0,2.4-0.1,3.6-0.1l11.7,11.4v-5c0-2.1-0.4-5.3-2.9-6V0.7
		c1.2,0,2.6,0.1,3.7,0.1c1.1,0,2.3-0.1,3.6-0.1v0.5c-2.4,0.7-3.2,3.9-3.2,6v12.3c0,0.7-0.4,0.9-0.6,0.9h-0.1c-0.3,0-0.7-0.5-1-0.8
		L232,4.3v9.2c0,2.1,0.4,5.3,2.9,6v0.5c-1.2,0-2.6-0.1-3.7-0.1c-1.1,0-2.3,0.1-3.6,0.1v-0.5c2.4-0.7,3.2-3.9,3.2-6V5.9
		c0-2.3-0.1-4.2-2.5-4.7V0.7z"/>
	<path style="fill:#594636;" d="M273.5,8.1L273,7.9c-0.5-3.5-2.2-6.8-6.2-6.8c-4.8,0-6.2,5.5-6.2,9.1c0,3.6,1.5,9.1,6.2,9.1
		c4,0,6.3-2.5,6.9-6.4l0.4-0.1l1.4,5.1c-3,1.5-5.6,2.4-9.5,2.4c-5.7,0-11.2-3.5-11.2-10.1c0-6.6,5.5-10.1,11.2-10.1
		c3.7,0,6.9,0.7,9.3,2L273.5,8.1z"/>
	<path style="fill:#594636;" d="M295.1,9.2V4.5c0.1-2.1-0.4-3-1.5-3.3V0.7c1.4,0,2.8,0.1,4.2,0.1c1.3,0,2.8-0.1,4.3-0.1v0.5
		c-1.3,0.3-1.7,1.4-1.7,3.3V14c0,2.1,0.1,5,2.1,5.2v0.6H293v-0.6c2-0.1,2.1-2.5,2.1-5.2v-3.8h-8.2V14c0,2.7,0.1,5,2.2,5.2v0.6h-9.7
		v-0.6c2.2-0.1,2.3-2.5,2.3-5.2v-9c0-3-0.1-3.5-1.6-3.9V0.7c1.4,0,2.8,0.1,4.2,0.1c1.3,0,2.8-0.1,4.4-0.1v0.5
		c-1.4,0.3-1.8,1-1.8,3.3v4.7H295.1z"/>
	<path style="fill:#3E5459;" d="M90.7,33.9c2,0,3,1.1,3,2.3c0,1.3-1,2.2-2.8,2.5v0c1.6,0.4,2.5,1.4,2.5,2.8c0,1.3-0.9,3.2-4.2,3.2
		h-6l0.1-0.5c1.3,0,1.5-0.6,1.9-2.2l1.2-5.8c0.1-0.4,0.1-0.7,0.1-0.9c0-0.7-0.5-0.9-1.4-0.9l0.1-0.5H90.7z M87,41.5
		c-0.2,0.8-0.2,1.2-0.2,1.5c0,0.8,0.6,1.2,1.8,1.2c1.7,0,2.8-1.1,2.8-2.8c0-1.7-1-2.5-3-2.5h-0.8L87,41.5z M88.9,38.4
		c2,0,2.9-1.1,2.9-2.3c0-0.9-0.5-1.6-1.9-1.6h-1.4l-0.8,3.9H88.9z"/>
	<path style="fill:#3E5459;" d="M105,43c-0.8,0.9-1.9,2-2.4,2c-0.3,0-0.5-0.3-0.5-0.7c0-0.3,0.1-0.8,0.2-1.5l0.4-1.9l0,0
		c-1.5,2.3-3.6,4.1-4.1,4.1c-0.3,0-0.5-0.3-0.5-0.8c0-0.3,0-0.6,0.1-0.9l0.8-3.8c0.1-0.2,0-0.4-0.1-0.4c-0.1,0-0.4,0.2-0.8,0.8
		l-0.3-0.2c0.9-1.2,1.8-1.9,2.3-1.9c0.3,0,0.5,0.3,0.5,0.7c0,0.2,0,0.5-0.1,0.9L99.6,43c-0.1,0.4,0,0.6,0.1,0.6
		c0.1,0,0.4-0.2,0.6-0.4c1.1-1.1,2.3-2.8,2.6-3.6l0.4-1.7c0.1-0.3,0.1-0.4,0.4-0.4h0.7c0.4,0,0.4,0.1,0.3,0.4l-1.1,5.2
		c-0.1,0.3,0,0.4,0.1,0.4c0.2,0,0.5-0.3,1-0.9L105,43z"/>
	<path style="fill:#3E5459;" d="M112.7,43.2c-1.1,1.1-1.9,1.8-2.5,1.8c-0.4,0-0.6-0.2-0.6-0.7c0-0.2,0-0.5,0.1-0.7l0.9-4.2
		c0-0.2,0.1-0.4-0.1-0.4c-0.2,0-0.4,0.2-1,0.8l-0.3-0.3c1.4-1.3,2-1.8,2.5-1.8c0.3,0,0.5,0.2,0.5,0.5c0,0.1,0,0.3-0.1,0.6l-0.9,4.6
		c0,0.2-0.1,0.2-0.1,0.3c0,0.1,0.1,0.2,0.2,0.2c0.2,0,0.7-0.5,1.1-1L112.7,43.2z M112.9,34.6c0,0.8-0.5,1.5-1,1.5
		c-0.4,0-0.7-0.3-0.7-0.8c0-0.8,0.5-1.5,1.1-1.5C112.7,33.8,112.9,34.1,112.9,34.6"/>
	<path style="fill:#3E5459;" d="M119.8,43.4c-0.9,0.9-1.8,1.5-2.3,1.5c-0.5,0-0.7-0.3-0.7-0.8c0-0.3,0.1-0.7,0.1-1.2l1.7-8.1
		c0.1-0.3,0.1-0.4,0.1-0.5c0-0.2-0.1-0.3-0.2-0.3c-0.1,0-0.5,0.2-1,0.5l-0.2-0.3c0.5-0.3,0.9-0.5,1.2-0.7c0.7-0.3,1.2-0.5,1.4-0.5
		c0.2,0,0.3,0.1,0.3,0.4c0,0.2-0.1,0.5-0.1,0.8l-1.8,9.3c-0.1,0.4-0.1,0.6,0.1,0.6c0.1,0,0.5-0.3,1.2-1L119.8,43.4z"/>
	<path style="fill:#3E5459;" d="M130.8,43.1c-0.9,1.2-1.7,1.9-2.3,1.9c-0.4,0-0.6-0.2-0.6-0.6c0-0.3,0.2-1.4,0.3-1.9l0,0
		c-1.3,1.8-2.2,2.6-3,2.6c-0.6,0-1-0.9-1-2c0-3.1,2.6-5.4,3.9-5.4c0.4,0,0.7,0.1,1,0.5l0.6-3.2c0.1-0.7,0.1-0.8-0.1-0.8
		c-0.1,0-0.7,0.3-1.2,0.7l-0.2-0.4c1.1-0.7,2.3-1.3,2.8-1.3c0.2,0,0.3,0.1,0.3,0.4c0,0.2,0,0.4-0.1,0.8l-1.8,8.6
		c-0.1,0.3-0.1,0.6-0.1,0.7c0,0.1,0.1,0.2,0.1,0.2c0.1,0,0.6-0.5,0.9-1L130.8,43.1z M128.9,39.2c-0.3-0.7-0.6-1.1-1.1-1.1
		c-0.2,0-0.5,0.1-0.7,0.3c-0.8,0.8-1.3,2.6-1.3,4.1c0,0.7,0.2,1.2,0.4,1.2c0.3,0,1.2-1,2.2-2.5L128.9,39.2z"/>
	<path style="fill:#3E5459;" d="M138.5,43.2c-1.1,1.1-1.9,1.8-2.5,1.8c-0.4,0-0.6-0.2-0.6-0.7c0-0.2,0-0.5,0.1-0.7l0.9-4.2
		c0-0.2,0.1-0.4-0.1-0.4c-0.2,0-0.4,0.2-1,0.8l-0.3-0.3c1.4-1.3,2-1.8,2.5-1.8c0.3,0,0.5,0.2,0.5,0.5c0,0.1,0,0.3-0.1,0.6l-0.9,4.6
		c0,0.2-0.1,0.2-0.1,0.3c0,0.1,0.1,0.2,0.2,0.2c0.2,0,0.7-0.5,1.1-1L138.5,43.2z M138.8,34.6c0,0.8-0.5,1.5-1,1.5
		c-0.4,0-0.7-0.3-0.7-0.8c0-0.8,0.5-1.5,1.1-1.5C138.5,33.8,138.8,34.1,138.8,34.6"/>
	<path style="fill:#3E5459;" d="M142.7,44.9l1.1-5.4c0.1-0.2,0-0.4-0.1-0.4c-0.1,0-0.5,0.4-0.9,1l-0.3-0.2c1-1.3,1.9-2.3,2.6-2.3
		c0.3,0,0.5,0.2,0.5,0.5c0,0.2,0,0.5-0.1,0.7l-0.5,2.4l0,0c2.1-2.7,3.2-3.6,3.9-3.6c0.5,0,0.7,0.4,0.7,1c0,0.3,0,0.6-0.2,1l-1,3.8
		c-0.1,0.5-0.1,0.6,0.1,0.6c0.2,0,0.9-0.7,1.3-1.3l0.3,0.3c-1,1.3-2,2-2.6,2c-0.4,0-0.7-0.3-0.7-0.7c0-0.2,0.1-0.4,0.1-0.7l0.8-3.3
		c0.1-0.4,0.2-0.9,0.2-1.1c0-0.2-0.1-0.3-0.2-0.3c-0.4,0-1.6,1.3-3.1,3.3l-0.6,2.9H142.7z"/>
	<path style="fill:#3E5459;" d="M159.6,38.5c0.3,0.5,0.4,1,0.4,1.4c0,0.6-0.2,1.5-0.9,2.2c-1.1,1.1-3,1.4-3,1.9c0,0.5,2,1.4,2.9,2.2
		c0.4,0.4,0.5,0.7,0.5,0.9c0,1-1.5,1.7-3.8,1.7c-2.1,0-3.5-0.5-3.5-1.4c0-0.7,0.8-1.2,3-2.3c-0.1-0.2-0.2-0.3-0.2-0.5
		c0-0.3,0.3-0.7,1-1.1c-0.5-0.2-0.9-0.5-1.1-0.9c-0.3-0.4-0.4-0.9-0.4-1.4c0-1.8,2.1-3.8,4.1-3.8c0.2,0,0.5,0,0.9,0.1h1.3v1
		L159.6,38.5z M153.4,47.2c0,0.7,0.9,1.2,2.3,1.2c1.4,0,2.3-0.3,2.3-0.8c0-0.1-0.1-0.2-0.2-0.4c-0.4-0.4-1.2-0.7-2.5-1.8
		C154.1,46,153.4,46.6,153.4,47.2 M158.4,39.8c0-1.1-0.3-1.7-0.8-1.7c-1,0-1.8,2.1-1.8,3.4c0,0.9,0.4,1.5,0.9,1.5
		C157.5,43,158.4,42,158.4,39.8"/>
	<path style="fill:#3E5459;" d="M176.6,43.3c-1.3,1.1-2.2,1.7-2.7,1.7c-0.5,0-0.7-0.3-0.7-0.8c0-0.2,0-0.4,0.1-0.9l1-4.8h-0.9
		l0.1-0.4c1-0.4,2-1.3,2.7-2.6h0.5c-0.4,0.8-0.6,1.5-0.8,2.3h1.4l-0.1,0.7h-1.4l-1,4.8c-0.1,0.3-0.1,0.5-0.1,0.6
		c0,0.2,0.1,0.3,0.2,0.3c0.2,0,0.9-0.5,1.6-1.1L176.6,43.3z"/>
	<path style="fill:#3E5459;" d="M180.7,44.9l2.1-10.2c0.1-0.3,0.1-0.3,0.1-0.4c0-0.2-0.1-0.3-0.2-0.3c-0.1,0-0.7,0.3-1,0.5l-0.2-0.3
		c0.9-0.6,2.3-1.2,2.6-1.2c0.2,0,0.3,0.1,0.3,0.4s0,0.5-0.2,1.3l-1.3,6.4l0,0c2.1-2.6,3.2-3.6,3.9-3.6c0.5,0,0.7,0.4,0.7,1
		c0,0.3,0,0.5-0.2,1l-1,4c-0.1,0.3,0,0.4,0.1,0.4c0.2,0,0.5-0.3,1.3-1.3l0.3,0.3c-1,1.3-1.9,2-2.6,2c-0.4,0-0.7-0.3-0.7-0.7
		c0-0.2,0-0.4,0.2-1.2l0.8-3.2c0.1-0.3,0.1-0.6,0.1-0.8c0-0.2-0.1-0.3-0.2-0.3c-0.5,0-2.2,2.1-3.1,3.3l-0.6,2.9H180.7z"/>
	<path style="fill:#3E5459;" d="M197.3,43.7c-1,0.8-2.1,1.3-3.1,1.3c-1.2,0-2-0.9-2-2.3c0-2.6,2.1-5.1,4.3-5.1
		c0.9,0,1.5,0.4,1.5,1.1c0,1.3-1.6,2.1-4.1,2.9c-0.1,0.3-0.2,0.7-0.2,1c0,1,0.5,1.7,1.3,1.7c0.5,0,1.1-0.3,2-0.9L197.3,43.7z
		 M196.6,38.8c0-0.5-0.2-0.8-0.5-0.8c-0.8,0-1.5,1.1-2.1,3.1C195.7,40.6,196.6,39.8,196.6,38.8"/>
	<path style="fill:#3E5459;" d="M209.8,44.8l0.1-0.5c1.3,0,1.5-0.2,1.9-2l1.2-5.9c0.1-0.7,0.2-0.9,0.2-1.1c0-0.6-0.5-0.8-1.5-0.8
		l0.1-0.5h4.9l-0.1,0.5c-1.4,0-1.5,0.2-1.9,2.1l-1.2,6c-0.1,0.3-0.1,0.8-0.1,1c0,0.6,0.3,0.7,1.8,0.7c2.8,0,3.4-0.2,4.6-1.9h0.5
		l-0.8,2.5H209.8z"/>
	<path style="fill:#3E5459;" d="M228.9,43.7c-1,0.8-2.1,1.3-3.1,1.3c-1.2,0-2-0.9-2-2.3c0-2.6,2.1-5.1,4.3-5.1
		c0.9,0,1.5,0.4,1.5,1.1c0,1.3-1.6,2.1-4.1,2.9c-0.1,0.3-0.2,0.7-0.2,1c0,1,0.5,1.7,1.3,1.7c0.5,0,1.1-0.3,2-0.9L228.9,43.7z
		 M228.2,38.8c0-0.5-0.2-0.8-0.5-0.8c-0.8,0-1.5,1.1-2.1,3.1C227.3,40.6,228.2,39.8,228.2,38.8"/>
	<path style="fill:#3E5459;" d="M238.6,38.5c0.3,0.5,0.4,1,0.4,1.4c0,0.6-0.2,1.5-0.9,2.2c-1.1,1.1-3,1.4-3,1.9c0,0.5,2,1.4,2.9,2.2
		c0.4,0.4,0.5,0.7,0.5,0.9c0,1-1.5,1.7-3.8,1.7c-2.1,0-3.5-0.5-3.5-1.4c0-0.7,0.8-1.2,3-2.3c-0.1-0.2-0.2-0.3-0.2-0.5
		c0-0.3,0.3-0.7,1-1.1c-0.5-0.2-0.9-0.5-1.1-0.9c-0.3-0.4-0.4-0.9-0.4-1.4c0-1.8,2.1-3.8,4.1-3.8c0.2,0,0.5,0,0.9,0.1h1.3v1
		L238.6,38.5z M232.5,47.2c0,0.7,0.9,1.2,2.3,1.2c1.4,0,2.3-0.3,2.3-0.8c0-0.1-0.1-0.2-0.2-0.4c-0.4-0.4-1.2-0.7-2.5-1.8
		C233.1,46,232.5,46.6,232.5,47.2 M237.5,39.8c0-1.1-0.3-1.7-0.8-1.7c-1,0-1.8,2.1-1.8,3.4c0,0.9,0.4,1.5,0.9,1.5
		C236.6,43,237.5,42,237.5,39.8"/>
	<path style="fill:#3E5459;" d="M249.9,43.4c-1,1-1.8,1.5-2.2,1.5c-0.3,0-0.5-0.3-0.5-0.8c0-0.3,0.1-1.2,0.2-1.5l0,0
		c-1.7,1.8-2.5,2.3-2.9,2.3c-0.5,0-1-0.8-1-1.7c0-1.5,1.1-3.2,2-4c1.5-1.4,3-1.6,4.5-1.7l-1.1,5.3c-0.1,0.3-0.1,0.4-0.1,0.6
		c0,0.2,0.1,0.3,0.2,0.3c0.2,0,0.4-0.2,0.9-0.6L249.9,43.4z M248.1,38.7c-1,0-1.6,0.3-2.1,0.8c-0.7,0.7-1.1,2.1-1.1,3.2
		c0,0.6,0.1,1,0.4,1c0.3,0,1.1-0.7,2.2-1.9L248.1,38.7z"/>
	<path style="fill:#3E5459;" d="M258.2,43.3c-1.1,1.1-2.1,1.6-3,1.6c-1,0-1.7-0.7-1.7-1.8c0-2.2,1.9-5.6,4.1-5.6
		c0.6,0,1.2,0.4,1.2,0.9c0,0.4-0.3,0.7-0.7,0.7c-0.6,0-0.9-0.7-1.5-0.7c-0.2,0-0.3,0.1-0.4,0.2c-0.8,0.8-1.2,3.5-1.2,4.4
		c0,0.8,0.4,1.3,0.9,1.3c0.5,0,1-0.3,1.9-1.2L258.2,43.3z"/>
	<path style="fill:#3E5459;" d="M261.9,48.8l0.1-0.5c0.5,0,0.9-0.1,1.2-0.3c0.3-0.3,1.7-3.1,1.7-4.5c0-1.1-0.4-4.8-1-4.8
		c-0.2,0-0.6,0.4-1,1.1l-0.3-0.2c0.7-1.1,1.5-1.9,2.1-1.9c1.3,0,1.7,3.9,1.7,6.3h0c1.4-2.5,2-4.3,2-4.6s-0.5-0.3-0.5-0.9
		c0-0.5,0.4-0.9,1-0.9c0.5,0,0.9,0.4,0.9,0.9c0,0.6-0.6,1.7-1.1,2.4l-0.8,1.2c-0.9,1.4-1.5,2.5-1.9,3.3l-0.9,2.2
		c-0.2,0.6,0,0.7,1,0.7l-0.1,0.5H261.9z"/>
	<path style="fill:#3E5459;" d="M36.4,41c-1.4-3.4-5.3-10.5-14.8-11.8V17h6c1.6,0,2.9-1.3,2.9-3c0-1.7-1.3-3-2.9-3h-6V3
		c0-1.7-1.3-3-2.9-3c-1.6,0-2.9,1.3-2.9,3v8H9.5c-1.6,0-2.9,1.3-2.9,3c0,1.7,1.3,3,2.9,3h6.3v12.2C6,30.3,2.1,37.6,0.5,40.8
		c-0.3,0.7-0.5,1.3-0.5,2c0,1.7,1.3,3,2.9,3c1.6,0,2.4-1.4,3-2.9c0,0,3.5-7.8,12.6-7.8c8.8,0,12.7,8.4,12.9,8.9c0,0,0,0,0,0v0
		c0.4,1.1,1.5,1.8,2.7,1.8c1.6,0,2.9-1.3,2.9-3C37,42.1,36.8,41.5,36.4,41"/>
	<line style="fill:none;stroke:#3E5459;stroke-width:0.758;stroke-miterlimit:10;" x1="47.3" y1="27.2" x2="304.1" y2="27.2"/>
</g>
</svg>
